<?xml version="1.0" encoding="utf-8"?>
<!-- Generator: Adobe Illustrator 21.1.0, SVG Export Plug-In . SVG Version: 6.00 Build 0)  -->
<svg version="1.1" id="Layer_1" xmlns="http://www.w3.org/2000/svg" xmlns:xlink="http://www.w3.org/1999/xlink" x="0px" y="0px"
	 viewBox="0 0 612 792" style="enable-background:new 0 0 612 792;" xml:space="preserve">
<style type="text/css">
	.st0{fill:#19F7AF;}
	.st1{fill:url(#SVGID_1_);stroke:#000000;stroke-width:3;stroke-miterlimit:10;}
	.st2{fill:url(#SVGID_2_);stroke:#000000;stroke-width:4;stroke-miterlimit:10;}
	.st3{fill:url(#SVGID_3_);stroke:#000000;stroke-width:3;stroke-miterlimit:10;}
	.st4{fill:none;stroke:#000000;stroke-miterlimit:10;}
	.st5{fill:url(#SVGID_4_);stroke:#000000;stroke-width:3;stroke-miterlimit:10;}
	.st6{fill:url(#SVGID_5_);stroke:#000000;stroke-width:3;stroke-miterlimit:10;}
	.st7{fill:url(#SVGID_6_);stroke:#000000;stroke-width:3;stroke-miterlimit:10;}
	.st8{fill:#CCCCCC;}
	.st9{fill:url(#SVGID_7_);stroke:#000000;stroke-width:3;stroke-miterlimit:10;}
	.st10{fill:url(#SVGID_8_);stroke:#000000;stroke-width:3;stroke-miterlimit:10;}
	.st11{fill:url(#SVGID_9_);stroke:#000000;stroke-width:3;stroke-miterlimit:10;}
</style>
<circle class="st0" cx="306.5" cy="353.5" r="299.5"/>
<linearGradient id="SVGID_1_" gradientUnits="userSpaceOnUse" x1="313.0665" y1="549.5868" x2="498.8536" y2="360.0459">
	<stop  offset="0" style="stop-color:#000000"/>
	<stop  offset="0.1444" style="stop-color:#060606"/>
	<stop  offset="0.3372" style="stop-color:#171717"/>
	<stop  offset="0.5572" style="stop-color:#333333"/>
	<stop  offset="0.7956" style="stop-color:#595959"/>
	<stop  offset="1" style="stop-color:#808080"/>
</linearGradient>
<path class="st1" d="M512.6,331.7c-4.7-23.8-30.5-39.1-53.5-30.6c-25.2,9.2-36.6,36.4-34,61.8c3,28.4,20.6,52.6,23.7,80.8
	c2.5,22.7-6.3,46.1-23,61.6c-19.7,18.3-48.7,22.9-73.7,14.4c-15.2-5.2-21.8,18.9-6.6,24c45,15.3,97.3-5.1,118.2-48.3
	c10.3-21.3,13-45,7.3-68.1c-6.3-25.2-23.5-49.6-21.3-76.4c0.9-10.8,6.8-22.4,17.5-26.4c10.4-3.8,19.3,3.8,21.3,13.8
	C491.6,354,515.6,347.4,512.6,331.7z"/>
<linearGradient id="SVGID_2_" gradientUnits="userSpaceOnUse" x1="287.1269" y1="277.1877" x2="287.1269" y2="737.0178">
	<stop  offset="0" style="stop-color:#CCCCCC"/>
	<stop  offset="0.1331" style="stop-color:#9C9C9C"/>
	<stop  offset="0.2851" style="stop-color:#6D6D6D"/>
	<stop  offset="0.437" style="stop-color:#464646"/>
	<stop  offset="0.5861" style="stop-color:#272727"/>
	<stop  offset="0.7314" style="stop-color:#121212"/>
	<stop  offset="0.8713" style="stop-color:#040404"/>
	<stop  offset="1" style="stop-color:#000000"/>
</linearGradient>
<path class="st2" d="M406.8,456.6c0,99.1-51.9,132.9-118,132.9s-121.3-33.8-121.3-132.9s53.6-179.4,119.6-179.4
	S406.8,357.5,406.8,456.6z"/>
<linearGradient id="SVGID_3_" gradientUnits="userSpaceOnUse" x1="288.0487" y1="366.0771" x2="288.0487" y2="116">
	<stop  offset="0" style="stop-color:#4D4D4D"/>
	<stop  offset="0.201" style="stop-color:#555555"/>
	<stop  offset="0.5083" style="stop-color:#6A6A6A"/>
	<stop  offset="0.8819" style="stop-color:#8D8D8D"/>
	<stop  offset="1" style="stop-color:#999999"/>
</linearGradient>
<path class="st3" d="M408.2,127.9c0.1-8.2-5.8-14-11.3-11.1l-76.7,39.6c-3.2-0.4,0,0,0,0c-10-2.5-20.6-3.8-31.5-3.8
	c-0.5,0-1.1,0-1.7,0c-6.1,0.1-24,4.2-29.9,5.1L182,117.2c-7-3-14.4,3-14.4,11.6c0,0,1.4,139.6,1.6,136.5
	c2.8,39.9,55.9,75.1,89.8,93.7c17.2,9.4,38.6,9.6,55.9,0.5c35.8-18.9,93.4-55.9,93.4-97.5C408.4,257,408.2,127.9,408.2,127.9z
	 M242.3,260.6c-8.3,0-15-6.7-15-15c0-8.3,6.7-15,15-15c8.3,0,15,6.7,15,15C257.2,253.9,250.5,260.6,242.3,260.6z M304.1,281.4
	l-15.3,15.3L274,281.9C270.5,278.4,307.3,278.2,304.1,281.4z M332,260.6c-8.3,0-15-6.7-15-15c0-8.3,6.7-15,15-15c8.3,0,15,6.7,15,15
	C346.9,253.9,340.2,260.6,332,260.6z"/>
<circle class="st4" cx="242.3" cy="245.6" r="15"/>
<linearGradient id="SVGID_4_" gradientUnits="userSpaceOnUse" x1="288.9574" y1="261.8833" x2="288.9574" y2="296.6768">
	<stop  offset="0" style="stop-color:#FFFFFF"/>
	<stop  offset="7.179159e-02" style="stop-color:#D3D3D3"/>
	<stop  offset="0.1645" style="stop-color:#A2A2A2"/>
	<stop  offset="0.2621" style="stop-color:#777777"/>
	<stop  offset="0.363" style="stop-color:#525252"/>
	<stop  offset="0.4679" style="stop-color:#343434"/>
	<stop  offset="0.5783" style="stop-color:#1D1D1D"/>
	<stop  offset="0.6966" style="stop-color:#0D0D0D"/>
	<stop  offset="0.8281" style="stop-color:#030303"/>
	<stop  offset="1" style="stop-color:#000000"/>
</linearGradient>
<path class="st5" d="M301.6,267.2c-7.1-7.1-18.6-7.1-25.6,0c0,0-5.5,11.2-1.9,14.7l14.8,14.8l15.3-15.3
	C307.3,278.2,301.6,267.2,301.6,267.2z"/>
<circle class="st4" cx="332" cy="245.6" r="15"/>
<linearGradient id="SVGID_5_" gradientUnits="userSpaceOnUse" x1="184.1142" y1="186.9904" x2="231.7497" y2="186.9904">
	<stop  offset="0" style="stop-color:#4D4D4D"/>
	<stop  offset="0.201" style="stop-color:#555555"/>
	<stop  offset="0.5083" style="stop-color:#6A6A6A"/>
	<stop  offset="0.8819" style="stop-color:#8D8D8D"/>
	<stop  offset="1" style="stop-color:#999999"/>
</linearGradient>
<path class="st6" d="M184.1,168.9l0.5,47.5c3.6-6.3,7.7-12.2,12.4-17.8c9.7-11.5,21.5-21.2,34.8-28.4l-3.1-1.1l-29.4-10.9
	C191.9,155.5,184,161,184.1,168.9z"/>
<linearGradient id="SVGID_6_" gradientUnits="userSpaceOnUse" x1="154.5457" y1="186.9904" x2="202.1812" y2="186.9904" gradientTransform="matrix(-1 0 0 1 549.6697 0)">
	<stop  offset="0" style="stop-color:#4D4D4D"/>
	<stop  offset="0.2408" style="stop-color:#515151"/>
	<stop  offset="0.4652" style="stop-color:#5C5C5C"/>
	<stop  offset="0.6831" style="stop-color:#6F6F6F"/>
	<stop  offset="0.8956" style="stop-color:#898989"/>
	<stop  offset="1" style="stop-color:#999999"/>
</linearGradient>
<path class="st7" d="M395.1,168.9l-0.5,47.5c-3.6-6.3-7.7-12.2-12.4-17.8c-9.7-11.5-21.5-21.2-34.8-28.4l3.1-1.1l29.4-10.9
	C387.4,155.5,395.2,161,395.1,168.9z"/>
<g>
	<circle class="st8" cx="242.3" cy="245.6" r="15"/>
	<path d="M257.7,245.6c0,4-1.5,8.1-4.3,11.2c-2.7,3.1-6.8,5.2-11.2,5.5c-2.2,0.2-4.4-0.1-6.6-0.8c-2.1-0.7-4.2-1.9-5.9-3.4
		c-3.4-3.1-5.5-7.7-5.5-12.4c0-4.7,2.1-9.4,5.5-12.4c1.7-1.5,3.7-2.7,5.9-3.4c2.1-0.7,4.4-1,6.6-0.8c4.4,0.3,8.4,2.4,11.2,5.5
		C256.2,237.5,257.7,241.6,257.7,245.6z M256.7,245.6c0-3.8-1.7-7.5-4.5-10c-1.4-1.2-3-2.1-4.7-2.7c-1.7-0.5-3.5-0.7-5.2-0.6
		c-3.5,0.3-6.6,2-8.7,4.5c-2.1,2.4-3.3,5.6-3.3,8.7c0,3.1,1.1,6.3,3.3,8.7c2.1,2.5,5.2,4.2,8.7,4.5c1.7,0.2,3.5,0,5.2-0.6
		c1.7-0.6,3.3-1.5,4.7-2.7C255,253.2,256.7,249.4,256.7,245.6z"/>
</g>
<g>
	<ellipse class="st8" cx="332.4" cy="245.6" rx="15.4" ry="15"/>
	<path d="M350.4,245.6c0,4.7-2.1,9.3-5.6,12.3c-1.7,1.5-3.7,2.6-5.9,3.4c-2.1,0.7-4.4,1-6.6,0.8c-4.4-0.3-8.5-2.3-11.3-5.3
		c-2.9-3-4.5-7.1-4.5-11.2c0-4.1,1.6-8.2,4.5-11.2c2.9-3,7-5,11.3-5.3c2.2-0.1,4.4,0.1,6.6,0.8c2.1,0.7,4.1,1.8,5.9,3.4
		C348.3,236.3,350.4,240.9,350.4,245.6z M345.1,245.6c0-3.3-1.3-6.5-3.6-8.9c-2.3-2.5-5.6-4.1-9.2-4.4c-1.8-0.1-3.6,0-5.4,0.6
		c-1.7,0.6-3.4,1.5-4.9,2.7c-2.9,2.4-4.6,6.2-4.6,10.1c0,3.8,1.8,7.6,4.6,10.1c1.4,1.2,3.1,2.1,4.9,2.7c1.8,0.6,3.6,0.7,5.4,0.6
		c3.6-0.3,6.9-2,9.2-4.4C343.9,252.1,345.1,248.9,345.1,245.6z"/>
</g>
<linearGradient id="SVGID_7_" gradientUnits="userSpaceOnUse" x1="205.469" y1="487.4178" x2="290.9246" y2="565.0183">
	<stop  offset="0" style="stop-color:#CCCCCC"/>
	<stop  offset="0.268" style="stop-color:#ADADAD"/>
	<stop  offset="0.7589" style="stop-color:#7A7A7A"/>
	<stop  offset="1" style="stop-color:#666666"/>
</linearGradient>
<path class="st9" d="M267.2,604.5L267.2,604.5c11,0,19.9-9.9,19.9-22v-33c0-24.2-17.9-93.6-39.9-93.6h0c-11,0-19.9,9.9-19.9,22v82.6
	C227.3,584.7,245.3,604.5,267.2,604.5z"/>
<linearGradient id="SVGID_8_" gradientUnits="userSpaceOnUse" x1="289.8048" y1="460.8377" x2="361.45" y2="578.525">
	<stop  offset="0" style="stop-color:#CCCCCC"/>
	<stop  offset="1" style="stop-color:#666666"/>
</linearGradient>
<path class="st10" d="M322,604.5L322,604.5c-11,0-19.9-9.9-19.9-22v-33c0-24.2,17.9-93.6,39.9-93.6h0c11,0,19.9,9.9,19.9,22v82.6
	C361.9,584.7,343.9,604.5,322,604.5z"/>
<linearGradient id="SVGID_9_" gradientUnits="userSpaceOnUse" x1="289.2037" y1="278.792" x2="289.2037" y2="280.1721">
	<stop  offset="0" style="stop-color:#FFFFFF"/>
	<stop  offset="0.1781" style="stop-color:#CBCBCB"/>
	<stop  offset="0.384" style="stop-color:#959595"/>
	<stop  offset="0.5764" style="stop-color:#6B6B6B"/>
	<stop  offset="0.7492" style="stop-color:#4C4C4C"/>
	<stop  offset="0.8962" style="stop-color:#3A3A3A"/>
	<stop  offset="1" style="stop-color:#333333"/>
</linearGradient>
<path class="st11" d="M274.7,280.2c4.3-1.8,22.8-1.9,29.1,0"/>
</svg>
